<?xml version="1.0" encoding="utf-8"?>
<!-- Generator: Adobe Illustrator 16.0.4, SVG Export Plug-In . SVG Version: 6.00 Build 0)  -->
<!DOCTYPE svg PUBLIC "-//W3C//DTD SVG 1.1//EN" "http://www.w3.org/Graphics/SVG/1.1/DTD/svg11.dtd">
<svg version="1.1" id="Layer_1" xmlns="http://www.w3.org/2000/svg" xmlns:xlink="http://www.w3.org/1999/xlink" x="0px" y="0px"
	 width="50px" height="50px" viewBox="0 0 50 50" enable-background="new 0 0 50 50" xml:space="preserve">
<path d="M22.949,12.502c0.938,1.31,1.41,2.875,1.41,4.699c0,1.879-0.473,3.389-1.422,4.532c-0.535,0.639-1.314,1.225-2.35,1.751
	c1.568,0.574,2.752,1.48,3.557,2.717c0.797,1.238,1.197,2.742,1.197,4.514c0,1.821-0.455,3.46-1.373,4.907
	c-0.58,0.956-1.307,1.768-2.178,2.42c-0.982,0.755-2.137,1.267-3.475,1.548c-1.34,0.276-2.785,0.413-4.352,0.413H0.094V9.222h14.875
	C18.725,9.277,21.383,10.37,22.949,12.502z M6.232,14.567v6.792h7.484c1.332,0,2.42-0.255,3.258-0.763
	c0.83-0.51,1.25-1.413,1.25-2.703c0-1.438-0.553-2.382-1.654-2.845c-0.951-0.32-2.164-0.481-3.637-0.481H6.232z M6.232,26.453v8.208
	h7.473c1.336,0,2.377-0.183,3.117-0.543c1.354-0.673,2.025-1.951,2.025-3.842c0-1.604-0.65-2.703-1.959-3.303
	c-0.732-0.332-1.76-0.509-3.078-0.521H6.232z M43.953,17.705c1.59,0.708,2.898,1.833,3.93,3.365
	c0.941,1.353,1.545,2.923,1.818,4.708c0.16,1.043,0.227,2.55,0.197,4.519H33.316c0.098,2.281,0.885,3.883,2.383,4.8
	c0.91,0.571,2.002,0.856,3.283,0.856c1.35,0,2.453-0.349,3.301-1.04c0.465-0.378,0.875-0.901,1.227-1.568h6.078
	c-0.16,1.349-0.898,2.721-2.205,4.116c-2.041,2.211-4.895,3.317-8.564,3.317c-3.031,0-5.705-0.929-8.016-2.8
	c-2.322-1.865-3.475-4.907-3.475-9.112c0-3.946,1.043-6.966,3.131-9.074c2.094-2.102,4.805-3.154,8.141-3.154
	C40.58,16.638,42.365,16.992,43.953,17.705z M35.049,22.844c-0.84,0.869-1.369,2.045-1.586,3.523h10.258
	c-0.109-1.579-0.641-2.774-1.584-3.598c-0.955-0.814-2.131-1.225-3.535-1.225C37.078,21.545,35.891,21.979,35.049,22.844z
	 M45.113,10.657H31.924v3.829h13.189V10.657z"/>
</svg>
