<?xml version="1.0" encoding="utf-8"?>
<!-- Generator: Adobe Illustrator 16.0.4, SVG Export Plug-In . SVG Version: 6.00 Build 0)  -->
<!DOCTYPE svg PUBLIC "-//W3C//DTD SVG 1.1//EN" "http://www.w3.org/Graphics/SVG/1.1/DTD/svg11.dtd">
<svg version="1.1" id="Layer_1" xmlns="http://www.w3.org/2000/svg" xmlns:xlink="http://www.w3.org/1999/xlink" x="0px" y="0px"
	 width="50px" height="50px" viewBox="0 0 50 50" enable-background="new 0 0 50 50" xml:space="preserve">
<path fill-rule="evenodd" clip-rule="evenodd" d="M49.494,19.969c-0.328-1.605-0.821-3.189-1.459-4.7
	c-0.626-1.481-1.403-2.911-2.308-4.246c-0.891-1.324-1.918-2.568-3.05-3.698c-1.131-1.133-2.377-2.159-3.697-3.052
	c-1.338-0.906-2.768-1.68-4.249-2.307c-1.51-0.636-3.089-1.131-4.697-1.456C28.387,0.172,26.692,0,25.002,0
	c-1.696,0-3.391,0.172-5.038,0.511c-1.603,0.324-3.188,0.819-4.697,1.456c-1.481,0.627-2.911,1.401-4.246,2.307
	c-1.323,0.893-2.569,1.919-3.7,3.052c-1.129,1.13-2.153,2.374-3.05,3.698c-0.901,1.335-1.676,2.765-2.302,4.246
	c-0.641,1.51-1.132,3.095-1.459,4.7c-0.339,1.642-0.511,3.339-0.511,5.033s0.172,3.392,0.511,5.034
	c0.327,1.608,0.818,3.188,1.459,4.697c0.626,1.481,1.4,2.917,2.302,4.249c0.896,1.326,1.921,2.566,3.05,3.697
	c1.131,1.132,2.377,2.153,3.7,3.05c1.335,0.901,2.765,1.682,4.246,2.308c1.51,0.638,3.095,1.126,4.697,1.453
	C21.611,49.834,23.306,50,25.002,50c1.69,0,3.385-0.166,5.032-0.511c1.608-0.327,3.188-0.815,4.697-1.453
	c1.481-0.626,2.911-1.406,4.249-2.308c1.32-0.896,2.566-1.918,3.697-3.05c1.132-1.131,2.159-2.371,3.05-3.697
	c0.904-1.332,1.682-2.768,2.308-4.249c0.638-1.51,1.131-3.089,1.459-4.697c0.335-1.642,0.505-3.34,0.505-5.034
	S49.829,21.611,49.494,19.969z M46.345,24.789c-0.308-0.069-7.536-1.625-14.869-0.701c-0.152-0.365-0.304-0.732-0.462-1.103
	c-0.445-1.045-0.922-2.078-1.421-3.095c8.435-3.445,11.856-8.395,11.896-8.452C44.481,15.077,46.296,19.722,46.345,24.789z
	 M39.101,8.979c-0.051,0.082-3.095,4.711-11.15,7.731c-3.651-6.706-7.659-12.033-7.981-12.457c1.614-0.391,3.296-0.603,5.033-0.603
	C30.408,3.65,35.34,5.666,39.101,8.979z M19.889,4.271c-0.003,0.003-0.006,0.004-0.006,0.004S19.86,4.281,19.82,4.289
	C19.843,4.282,19.866,4.279,19.889,4.271z M15.893,5.691c0.281,0.381,4.231,5.733,7.927,12.302
	C13.567,20.718,4.673,20.609,4.107,20.6C5.494,13.989,9.938,8.504,15.893,5.691z M3.65,25.001c0-0.229,0.012-0.454,0.018-0.675
	c0.379,0.009,10.927,0.244,21.92-3.043c0.611,1.197,1.197,2.415,1.73,3.629c-0.281,0.077-0.562,0.164-0.838,0.255
	C14.956,28.893,9.111,39.257,9.111,39.257s0.009,0.006,0.009,0.012C5.721,35.484,3.65,30.483,3.65,25.001z M25.002,46.354
	c-5.171,0-9.907-1.837-13.6-4.897c0.281,0.229,0.477,0.373,0.477,0.373s4.094-8.923,16.755-13.332
	c0.046-0.018,0.095-0.035,0.144-0.046c3.003,7.803,4.243,14.343,4.559,16.209C30.775,45.751,27.956,46.354,25.002,46.354z
	 M36.931,42.708c-0.219-1.286-1.355-7.557-4.157-15.249c6.896-1.103,12.867,0.785,13.31,0.935
	C45.13,34.342,41.725,39.47,36.931,42.708z"/>
</svg>
