<?xml version="1.0" encoding="utf-8"?>
<!-- Generator: Adobe Illustrator 16.0.4, SVG Export Plug-In . SVG Version: 6.00 Build 0)  -->
<!DOCTYPE svg PUBLIC "-//W3C//DTD SVG 1.1//EN" "http://www.w3.org/Graphics/SVG/1.1/DTD/svg11.dtd">
<svg version="1.1" id="Layer_1" xmlns="http://www.w3.org/2000/svg" xmlns:xlink="http://www.w3.org/1999/xlink" x="0px" y="0px"
	 width="50px" height="50px" viewBox="0 0 50 50" enable-background="new 0 0 50 50" xml:space="preserve">
<path d="M11.093,47.814H1.407V16.816h9.686V47.814z M6.001,12.939H5.933c-3.504,0-5.779-2.369-5.779-5.371
	c0-3.062,2.344-5.383,5.914-5.383c3.574,0,5.773,2.315,5.844,5.374C11.911,10.562,9.642,12.939,6.001,12.939z M49.847,47.814H38.864
	V31.773c0-4.2-1.719-7.064-5.496-7.064c-2.893,0-4.496,1.934-5.244,3.8c-0.279,0.668-0.24,1.6-0.24,2.534v16.771H17.005
	c0,0,0.141-28.412,0-30.998h10.879v4.865c0.646-2.126,4.121-5.161,9.674-5.161c6.883,0,12.289,4.456,12.289,14.058V47.814z"/>
</svg>
