<?xml version="1.0" encoding="utf-8"?>
<!-- Generator: Adobe Illustrator 16.0.4, SVG Export Plug-In . SVG Version: 6.00 Build 0)  -->
<!DOCTYPE svg PUBLIC "-//W3C//DTD SVG 1.1//EN" "http://www.w3.org/Graphics/SVG/1.1/DTD/svg11.dtd">
<svg version="1.1" id="Layer_1" xmlns="http://www.w3.org/2000/svg" xmlns:xlink="http://www.w3.org/1999/xlink" x="0px" y="0px"
	 width="284.879px" height="112.611px" viewBox="0 0 284.879 112.611" enable-background="new 0 0 284.879 112.611"
	 xml:space="preserve">
<g>
	<path d="M21.116,2.315L0,112.61h11.351l4.248-22.219H43.49l4.254,22.219h12.29L38.924,2.315H21.116z M17.178,79.837L29.31,16.182
		l12.449,63.655H17.178z"/>
	<polygon points="104.783,90.392 86.659,2.315 69.487,2.315 69.487,112.61 80.202,112.61 80.202,24.691 98.479,112.452 
		110.296,112.452 127.785,23.901 127.785,112.61 139.446,112.61 139.446,2.315 122.271,2.315 	"/>
	<polygon points="178.203,56.519 161.027,2.315 148.265,2.315 171.584,73.06 171.584,112.61 183.719,112.61 183.719,73.06 
		207.197,2.315 195.536,2.315 	"/>
	<path d="M237.544,59.775c8.837,0,13.905-5.594,13.905-15.349v-8.199h-8.367v8.522c0,6.184-3.068,6.899-5.377,6.899
		c-1.329,0-5.373,0-5.373-6.899V15.027c0-6.901,4.044-6.901,5.373-6.901c2.309,0,5.377,0.716,5.377,6.901v6.595h8.367v-6.273
		C251.449,5.595,246.381,0,237.544,0c-8.784,0-13.822,5.595-13.822,15.349v29.078C223.722,54.182,228.76,59.775,237.544,59.775z"/>
	<path d="M270.738,0c-8.939,0-14.067,5.595-14.067,15.349v29.078c0,9.611,5.259,15.349,14.067,15.349
		c8.854,0,14.141-5.737,14.141-15.349V15.349C284.879,5.595,279.725,0,270.738,0z M265.277,15.027c0-4.579,1.838-6.901,5.461-6.901
		c1.35,0,5.454,0,5.454,6.901V44.75c0,6.184-3.112,6.899-5.454,6.899c-1.351,0-5.461,0-5.461-6.899V15.027z"/>
	<rect x="224.934" y="67.899" width="58.733" height="7.273"/>
</g>
</svg>
