<?xml version="1.0" encoding="utf-8"?>
<!-- Generator: Adobe Illustrator 16.0.4, SVG Export Plug-In . SVG Version: 6.00 Build 0)  -->
<!DOCTYPE svg PUBLIC "-//W3C//DTD SVG 1.1//EN" "http://www.w3.org/Graphics/SVG/1.1/DTD/svg11.dtd">
<svg version="1.1" id="Layer_1" xmlns="http://www.w3.org/2000/svg" xmlns:xlink="http://www.w3.org/1999/xlink" x="0px" y="0px"
	 width="50px" height="50px" viewBox="0 0 50 50" enable-background="new 0 0 50 50" xml:space="preserve">
<path d="M49.9,9.556c-1.832,0.811-3.801,1.359-5.869,1.607c2.113-1.264,3.734-3.266,4.494-5.649c-1.977,1.17-4.16,2.018-6.492,2.475
	c-1.857-1.984-4.516-3.226-7.457-3.226c-5.641,0-10.213,4.576-10.213,10.217c0,0.802,0.086,1.581,0.262,2.327
	C16.137,16.881,8.608,12.816,3.564,6.63c-0.879,1.516-1.382,3.269-1.382,5.142c0,3.54,1.804,6.668,4.545,8.504
	C5.055,20.224,3.479,19.759,2.098,19v0.125c0,4.953,3.521,9.084,8.197,10.021c-0.855,0.239-1.758,0.359-2.691,0.359
	c-0.659,0-1.299-0.063-1.921-0.184c1.299,4.06,5.069,7.015,9.543,7.092c-3.497,2.743-7.905,4.376-12.688,4.376
	c-0.826,0-1.639-0.046-2.438-0.14c4.521,2.895,9.895,4.587,15.661,4.587c18.797,0,29.072-15.566,29.072-29.069
	c0-0.445-0.01-0.888-0.029-1.324C46.801,13.404,48.537,11.603,49.9,9.556"/>
</svg>
